<svg width="44" height="44" xmlns="http://www.w3.org/2000/svg" xmlns:xlink="http://www.w3.org/1999/xlink" xmlns:svgjs="http://svgjs.com/svgjs" fill="#f8f8f8"><svg xmlns="http://www.w3.org/2000/svg" width="44" height="44" viewBox="0 0.048 43.952 43.952"><path paint-order="stroke fill markers" fill-rule="evenodd" d="M43.952 22.024c0-12.136-9.84-21.976-21.976-21.976C9.841.048 0 9.888 0 22.024 0 34.159 9.84 44 21.976 44c.13 0 .258-.003.386-.005V26.887h-4.721v-5.502h4.721v-4.05c0-4.695 2.867-7.251 7.056-7.251 2.006 0 3.73.15 4.233.216v4.908h-2.889c-2.279 0-2.72 1.083-2.72 2.672v3.505h5.45l-.711 5.502h-4.739v16.264c9.186-2.634 15.91-11.096 15.91-21.127z"/></svg></svg>